<?xml version="1.0" encoding="utf-8"?>
<!-- Generator: Adobe Illustrator 16.0.0, SVG Export Plug-In . SVG Version: 6.00 Build 0)  -->
<!DOCTYPE svg PUBLIC "-//W3C//DTD SVG 1.1//EN" "http://www.w3.org/Graphics/SVG/1.1/DTD/svg11.dtd">
<svg version="1.1" id="Capa_1" xmlns="http://www.w3.org/2000/svg" xmlns:xlink="http://www.w3.org/1999/xlink" x="0px" y="0px"
	 width="1920px" height="1080px" viewBox="0 0 1920 1080" enable-background="new 0 0 1920 1080" xml:space="preserve">
<g>
	<g>
		<path fill="#60BC90" stroke="#60BC90" stroke-width="5" stroke-miterlimit="10" d="M1445.874,0h-126v36h82.548l-108.324,108.324
			C1175.31,39.055,993.676,50.015,888.408,168.802c-32.825,37.04-55.527,81.932-65.909,130.322
			c-152.87-43.391-311.972,45.357-355.363,198.228c-43.391,152.869,45.358,311.973,198.229,355.362
			c19.744,5.604,40.029,9.081,60.514,10.368V954h-90v36h90v90h36v-90h90v-36h-90v-90.918
			c128.473-8.149,235.975-100.487,263.412-226.26c152.641,43.693,311.799-44.625,355.493-197.264
			c27.048-94.48,3.953-196.232-61.229-269.784l108.324-108.324V144h36V18C1463.874,8.06,1455.813,0,1445.874,0z M743.874,828
			c-139.176,0.099-252.081-112.644-252.18-251.82C491.595,437.004,604.34,324.099,743.517,324
			c24.952-0.018,49.769,3.67,73.637,10.944c-0.722,8.278-1.278,16.596-1.278,25.056c0.131,115.392,69.022,219.6,175.14,264.924
			C967.533,742.849,864.114,827.829,743.874,828z M995.315,587.07C907.789,545.29,852.009,456.986,851.874,360
			c0-3.744,0.396-7.38,0.558-11.07C939.959,390.71,995.739,479.014,995.874,576C995.874,579.744,995.478,583.38,995.315,587.07z
			 M1351.146,408.924C1327.783,526.973,1224.213,612.031,1103.874,612c-24.833-0.002-49.527-3.69-73.278-10.944
			c0.722-8.278,1.278-16.596,1.278-25.056c-0.131-115.392-69.023-219.6-175.14-264.924
			c27.02-136.528,159.601-225.302,296.129-198.281C1289.391,139.815,1378.165,272.396,1351.146,408.924z"/>
	</g>
</g>
</svg>
