<?xml version="1.0" encoding="utf-8"?>
<!-- Generator: Adobe Illustrator 16.0.0, SVG Export Plug-In . SVG Version: 6.00 Build 0)  -->
<!DOCTYPE svg PUBLIC "-//W3C//DTD SVG 1.1//EN" "http://www.w3.org/Graphics/SVG/1.1/DTD/svg11.dtd">
<svg version="1.1" id="Capa_1" xmlns="http://www.w3.org/2000/svg" xmlns:xlink="http://www.w3.org/1999/xlink" x="0px" y="0px"
	 width="1920px" height="1080px" viewBox="0 0 1920 1080" enable-background="new 0 0 1920 1080" xml:space="preserve">
<g>
	<g>
		<path fill="#60BC90" d="M960.105,0C734.175,0.231,551.112,183.388,550.997,409.319c0,219.819,377.314,645.772,393.316,663.669
			c7.757,8.665,21.068,9.399,29.733,1.643c0.576-0.516,1.124-1.063,1.642-1.643c16.003-18.107,393.317-443.85,393.317-663.669
			C1368.888,183.47,1185.952,0.348,960.105,0z M960.105,1026.877c-72.01-84.222-366.998-437.744-366.998-617.769
			c0-202.688,164.31-366.998,366.998-366.998s366.997,164.31,366.997,366.998C1327.103,589.133,1032.115,943.076,960.105,1026.877z"
			/>
	</g>
</g>
<g>
	<g>
		<path fill="#60BC90" d="M967.475,205.291c-122.448,0.116-221.62,99.477-221.504,221.925s99.477,221.62,221.925,221.504
			c122.367-0.115,221.504-99.348,221.504-221.714C1189.168,304.57,1089.91,205.407,967.475,205.291z M967.475,606.819
			c-99.192,0-179.604-80.411-179.604-179.604s80.411-179.603,179.604-179.603s179.604,80.411,179.604,179.603
			C1146.962,526.361,1066.617,606.704,967.475,606.819z"/>
	</g>
</g>
</svg>
