<?xml version="1.0" encoding="utf-8"?>
<!-- Generator: Adobe Illustrator 16.0.0, SVG Export Plug-In . SVG Version: 6.00 Build 0)  -->
<!DOCTYPE svg PUBLIC "-//W3C//DTD SVG 1.1//EN" "http://www.w3.org/Graphics/SVG/1.1/DTD/svg11.dtd">
<svg version="1.1" id="Capa_1" xmlns="http://www.w3.org/2000/svg" xmlns:xlink="http://www.w3.org/1999/xlink" x="0px" y="0px"
	 width="1920px" height="1080px" viewBox="0 0 1920 1080" enable-background="new 0 0 1920 1080" xml:space="preserve">
<path fill="#60BC90" stroke="#5BAD86" stroke-width="10" stroke-miterlimit="10" d="M658.32,1070.378
	c-2.651,0-5.335-0.654-7.757-1.964c-5.304-2.847-8.607-8.41-8.607-14.399V820.865C498.709,746.378,420,615.96,420,452.553
	C420,200.029,652.135,9.622,960,9.622s540,190.407,540,442.931c0,252.491-232.135,442.898-540,442.898
	c-10.112,0-20.029-0.557-29.979-1.08l-0.652-0.033L667.32,1067.662C664.604,1069.462,661.462,1070.378,658.32,1070.378z M960,42.349
	c-289.179,0-507.272,176.367-507.272,410.204c0,108.753,36.916,256.647,212.825,343.604c5.563,2.749,9.101,8.441,9.101,14.662
	v212.76L915.82,864.066c2.943-1.966,6.513-3.109,9.884-2.686l6.087,0.327c9.358,0.523,18.688,1.015,28.178,1.015
	c289.179,0,507.273-176.335,507.273-410.171C1467.24,218.716,1249.179,42.349,960,42.349z"/>
<circle fill="#60BC90" cx="1259.437" cy="467.89" r="42.991"/>
<circle fill="#60BC90" cx="965" cy="467.89" r="42.991"/>
<circle fill="#60BC90" cx="670.563" cy="467.89" r="42.991"/>
</svg>
