<?xml version="1.0" encoding="utf-8"?>
<!-- Generator: Adobe Illustrator 16.0.0, SVG Export Plug-In . SVG Version: 6.00 Build 0)  -->
<!DOCTYPE svg PUBLIC "-//W3C//DTD SVG 1.1//EN" "http://www.w3.org/Graphics/SVG/1.1/DTD/svg11.dtd">
<svg version="1.1" id="Capa_1" xmlns="http://www.w3.org/2000/svg" xmlns:xlink="http://www.w3.org/1999/xlink" x="0px" y="0px"
	 width="1920px" height="1080px" viewBox="0 0 1920 1080" enable-background="new 0 0 1920 1080" xml:space="preserve">
<path fill="#60BC90" d="M1341.897,158.125c-210.566-210.569-553.188-210.569-763.754,0
	c-73.879,73.879-124.415,166.693-146.149,268.414c-21.16,99.046-14.229,201.663,20.042,296.753
	c4.117,11.419,16.716,17.339,28.131,13.225c11.422-4.117,17.342-16.712,13.225-28.131c-31.486-87.367-37.854-181.65-18.408-272.667
	c19.954-93.4,66.376-178.646,134.243-246.514c193.429-193.428,508.158-193.428,701.587,0
	c92.115,92.119,143.681,214.566,145.193,344.794c1.513,129.991-46.932,253.416-136.401,347.535
	c-1.059,1.113-2.106,2.234-3.154,3.355c-1.854,1.982-3.703,3.968-5.638,5.901c-193.429,193.429-508.158,193.429-701.587,0
	c-1.029-1.029-2.033-2.077-3.025-3.124c-0.052-2.03-0.096-4.03-0.096-6.001c0-4.425,0.084-8.832,0.245-13.225
	c0.056-1.469,0.165-2.924,0.238-4.389c0.144-2.92,0.278-5.84,0.491-8.744c0.128-1.733,0.315-3.447,0.469-5.173
	c0.231-2.619,0.447-5.238,0.732-7.844c0.202-1.839,0.466-3.663,0.696-5.495c0.312-2.473,0.608-4.952,0.975-7.414
	c0.278-1.876,0.608-3.733,0.916-5.598c0.392-2.399,0.772-4.799,1.216-7.184c0.349-1.887,0.747-3.755,1.129-5.631
	c0.472-2.341,0.938-4.686,1.458-7.012c0.421-1.887,0.89-3.762,1.34-5.638c0.55-2.29,1.096-4.579,1.689-6.851
	c0.494-1.883,1.029-3.751,1.55-5.623c0.626-2.242,1.249-4.488,1.919-6.715c0.561-1.868,1.162-3.723,1.755-5.576
	c0.703-2.201,1.407-4.407,2.15-6.59c0.63-1.843,1.29-3.675,1.949-5.506c0.78-2.169,1.564-4.338,2.385-6.492
	c0.696-1.82,1.418-3.623,2.144-5.429c0.854-2.129,1.714-4.257,2.607-6.367c0.763-1.795,1.546-3.575,2.338-5.355
	c0.927-2.092,1.864-4.177,2.831-6.246c0.824-1.762,1.667-3.514,2.521-5.261c1.004-2.055,2.019-4.106,3.06-6.14
	c0.883-1.722,1.78-3.437,2.692-5.144c1.077-2.022,2.172-4.037,3.289-6.041c0.941-1.685,1.895-3.362,2.861-5.029
	c1.15-1.982,2.319-3.953,3.51-5.917c1-1.648,2.011-3.289,3.037-4.923c1.224-1.941,2.465-3.872,3.726-5.788
	c1.055-1.608,2.117-3.209,3.198-4.799c1.293-1.905,2.615-3.788,3.949-5.668c1.109-1.563,2.22-3.124,3.355-4.667
	c1.366-1.86,2.762-3.703,4.165-5.535c1.161-1.517,2.318-3.033,3.506-4.531c1.439-1.821,2.912-3.62,4.389-5.411
	c1.205-1.465,2.41-2.931,3.642-4.378c1.517-1.78,3.065-3.535,4.619-5.286c1.253-1.414,2.498-2.831,3.773-4.224
	c1.59-1.736,3.213-3.439,4.839-5.144c1.297-1.362,2.587-2.729,3.905-4.073c1.667-1.692,3.37-3.349,5.07-5.012
	c1.333-1.301,2.656-2.615,4.012-3.897c1.75-1.656,3.542-3.271,5.326-4.891c1.362-1.234,2.707-2.484,4.088-3.7
	c1.843-1.623,3.733-3.198,5.612-4.784c1.378-1.161,2.74-2.341,4.136-3.484c1.945-1.59,3.938-3.132,5.924-4.686
	c1.385-1.08,2.748-2.187,4.147-3.249c2.091-1.586,4.228-3.117,6.359-4.656c1.345-0.975,2.663-1.971,4.026-2.927
	c2.352-1.652,4.758-3.246,7.157-4.847c1.184-0.787,2.341-1.604,3.532-2.381c3.128-2.033,6.312-4.001,9.518-5.942
	c0.498-0.3,0.981-0.622,1.483-0.923c3.707-2.22,7.466-4.374,11.269-6.47c1.3-0.714,2.637-1.385,3.952-2.084
	c2.524-1.349,5.041-2.708,7.609-3.997c1.645-0.828,3.329-1.604,4.989-2.407c2.096-1.015,4.184-2.04,6.305-3.019
	c39.839,38.056,92.983,59.6,148.146,59.6c55.163,0,108.311-21.548,148.149-59.606c77.77,35.992,141.42,100.573,175.977,179.108
	c4.887,11.107,17.852,16.159,28.97,11.269c11.111-4.891,16.155-17.862,11.265-28.97c-37.798-85.905-103.603-154.553-186.896-195.993
	c24.167-35.45,37.242-77.312,37.242-120.51c0-118.388-96.317-214.705-214.706-214.705c-12.137,0-21.979,9.844-21.979,21.98
	c0,12.137,9.843,21.98,21.979,21.98c94.152,0,170.745,76.597,170.745,170.745c0,42.1-15.646,82.639-44.052,114.14
	c-0.003,0.004-0.007,0.007-0.011,0.011c-32.436,35.967-78.608,56.595-126.686,56.595c-48.078,0-94.255-20.628-126.687-56.595
	c-0.004-0.007-0.011-0.011-0.019-0.015c-28.401-31.512-44.044-72.04-44.044-114.132c0-45.953,17.99-89.063,50.66-121.381
	c8.631-8.54,8.704-22.457,0.165-31.083c-8.536-8.635-22.453-8.701-31.084-0.168c-41.077,40.626-63.701,94.833-63.701,152.619
	c0,43.154,13.041,84.986,37.168,120.418c-0.217,0.106-0.425,0.224-0.638,0.334c-1.714,0.856-3.389,1.766-5.088,2.641
	c-2.605,1.349-5.217,2.689-7.785,4.092c-1.817,0.989-3.594,2.03-5.393,3.045c-2.399,1.358-4.803,2.711-7.169,4.113
	c-1.835,1.092-3.642,2.221-5.458,3.338c-2.271,1.399-4.543,2.795-6.781,4.234c-1.828,1.176-3.623,2.385-5.429,3.587
	c-2.173,1.447-4.342,2.901-6.48,4.389c-1.799,1.253-3.576,2.531-5.353,3.81c-2.088,1.506-4.169,3.019-6.224,4.561
	c-1.763,1.323-3.503,2.664-5.239,4.012c-2.015,1.564-4.015,3.14-5.993,4.74c-1.714,1.385-3.414,2.788-5.106,4.198
	c-1.945,1.627-3.876,3.271-5.788,4.935c-1.659,1.439-3.309,2.891-4.941,4.359c-1.887,1.696-3.748,3.411-5.598,5.14
	c-1.598,1.491-3.191,2.985-4.767,4.506c-1.828,1.766-3.627,3.558-5.422,5.356c-1.531,1.534-3.063,3.065-4.564,4.623
	c-1.776,1.843-3.521,3.718-5.261,5.594c-1.454,1.567-2.919,3.128-4.348,4.722c-1.74,1.935-3.433,3.909-5.133,5.876
	c-1.366,1.583-2.744,3.15-4.085,4.752c-1.726,2.063-3.396,4.165-5.077,6.261c-1.249,1.561-2.523,3.099-3.751,4.678
	c-1.766,2.271-3.473,4.587-5.188,6.895c-1.077,1.45-2.184,2.876-3.238,4.341c-2.169,3.004-4.268,6.052-6.349,9.114
	c-0.546,0.807-1.125,1.59-1.667,2.399c-2.59,3.869-5.106,7.781-7.558,11.737c-0.846,1.367-1.641,2.763-2.469,4.137
	c-1.586,2.634-3.18,5.264-4.707,7.935c-0.953,1.667-1.854,3.363-2.781,5.044c-1.337,2.418-2.682,4.829-3.964,7.275
	c-0.952,1.813-1.854,3.649-2.78,5.477c-1.194,2.359-2.392,4.715-3.539,7.1c-0.912,1.898-1.78,3.817-2.663,5.727
	c-1.084,2.355-2.172,4.707-3.213,7.085c-0.856,1.96-1.678,3.938-2.502,5.912c-0.992,2.37-1.978,4.74-2.923,7.129
	c-0.795,2.008-1.557,4.026-2.319,6.045c-0.901,2.396-1.791,4.795-2.648,7.209c-0.726,2.048-1.429,4.106-2.125,6.169
	c-0.816,2.422-1.611,4.851-2.381,7.294c-0.655,2.077-1.29,4.162-1.912,6.25c-0.732,2.465-1.439,4.938-2.125,7.422
	c-0.579,2.096-1.146,4.194-1.692,6.305c-0.648,2.509-1.264,5.029-1.864,7.558c-0.502,2.11-1.001,4.216-1.466,6.334
	c-0.564,2.561-1.088,5.136-1.601,7.715c-0.422,2.11-0.851,4.22-1.238,6.341c-0.48,2.631-0.912,5.275-1.341,7.924
	c-0.337,2.089-0.692,4.173-0.996,6.269c-0.399,2.732-0.736,5.48-1.081,8.228c-0.253,2.037-0.531,4.07-0.755,6.114
	c-0.314,2.88-0.557,5.777-0.81,8.675c-0.169,1.931-0.37,3.854-0.509,5.796c-0.234,3.234-0.389,6.483-0.546,9.736
	c-0.077,1.616-0.198,3.221-0.257,4.84c-0.176,4.88-0.274,9.777-0.274,14.693c0,5.309,0.18,10.327,0.396,15.87
	c0.051,1.282,0.23,2.527,0.487,3.744c0.021,0.095,0.033,0.19,0.055,0.285c0.271,1.198,0.652,2.349,1.11,3.462
	c0.044,0.11,0.084,0.22,0.132,0.33c0.473,1.099,1.036,2.146,1.674,3.143c0.081,0.125,0.157,0.249,0.238,0.37
	c0.655,0.979,1.385,1.897,2.18,2.755c0.059,0.063,0.099,0.14,0.157,0.201l2.901,3.089c2.191,2.345,4.382,4.682,6.668,6.964
	c105.284,105.284,243.579,157.927,381.878,157.927s276.595-52.643,381.879-157.927c2.286-2.282,4.477-4.623,6.668-6.964l2.901-3.089
	c97.404-102.467,150.142-236.824,148.497-378.332C1498.314,391.715,1442.178,258.405,1341.897,158.125z"/>
</svg>
